<svg version="1" xmlns="http://www.w3.org/2000/svg" width="682.667" height="682.667" viewBox="0 0 512.000000 512.000000"><path d="M367.1 42.7c-11 2.8-13.7 5.1-34.9 30.8-8 9.8-8.9 13.2-5.2 19.3l2.1 3.4-9.8 11.6c-5.4 6.5-12.7 15.1-16.2 19.2s-7.3 8.6-8.5 10c-8.1 9.7-13.2 15.6-14 16.1-.5.4-2.3.2-4-.3-33.8-10.9-64.5-11.9-97.6-3-43.5 11.7-83.5 45.1-103.3 86.5-13 27.2-17.6 53.1-15.6 88.6.3 6 .1 7.4-1.1 7.6-.8.1-4.6.6-8.3.9-3.7.4-7.6.9-8.5 1.1-.9.1-5.1.6-9.2 1s-8.2.9-9.1 1c-.8.2-4.2.6-7.5.9-11.1 1.2-14.7 3.2-15.9 8.7-1.6 7 3.1 12.5 11.3 13.4 2 .2 9.3 1.1 16.2 1.9 6.9.8 15.2 1.8 18.5 2.2 3.3.3 6.7.7 7.5.9.8.1 4.8.6 8.8 1l7.2.7 5.4 11.2c3 6.1 6.6 12.9 8 15.2l2.5 4-11 16.8c-6 9.2-11.2 18-11.5 19.5-.8 3.8 1.9 8.7 5.7 10.7 5.2 2.6 8.6 1.2 18-7.5 4.6-4.4 10.4-9.7 12.8-11.9l4.4-4.1 6.6 6.1c5.5 5.1 9.8 8.5 23.6 18.6 2.3 1.7 9.6 5.5 18 9.6 26.8 13 58.5 18.4 88.8 15.2 13.4-1.4 31.8-6.2 43.2-11.1 11.7-5.1 14.9-6.7 22-11 26.4-15.9 48.5-39.6 62-66.6l4.5-8.9h29.5c20.8 0 29.5.3 29.5 1.1 0 2.7 3.3 7.6 6.2 9.4 2.8 1.6 5.5 1.8 22.7 1.9 15.4.1 20.6-.2 24.7-1.5 11.2-3.5 18.9-10.1 23.6-20.5 1.8-3.9 2.2-6.7 2.2-13.9 0-7.9-.3-9.7-2.8-14.7-3.7-7.3-9.6-13.2-17.1-17.1l-6-3.1-22-.3c-20.6-.3-22.2-.2-25.3 1.7-2 1.2-4.1 3.8-5.2 6.3l-1.9 4.2-22.3-.1c-12.3-.1-22.6-.2-22.9-.3-.4 0-.5-1.6-.3-3.4.5-5.5.5-24.9-.1-30.7-.9-8.3-4.4-25.3-6.7-32.3-10.3-31.7-27-56.3-53.6-79-3-2.5-3.2-3-1.9-4.5.7-.9 5.4-6.4 10.2-12.2 4.8-5.8 13.8-16.4 19.8-23.6l11-13.1 3.9 1.4c4.3 1.5 7.9 1.1 11.3-1.1 1.2-.8 7.8-8.2 14.7-16.4 13.7-16.3 16.7-21.8 16.9-31.4.1-7.7-.9-12.6-3.9-18.3-7.8-14.4-24.4-21.9-40.1-17.8z"/></svg>